<?xml version="1.0" standalone="no"?><!DOCTYPE svg PUBLIC "-//W3C//DTD SVG 1.1//EN" "http://www.w3.org/Graphics/SVG/1.1/DTD/svg11.dtd"><svg t="1699104777710" class="icon" viewBox="0 0 1024 1024" version="1.1" xmlns="http://www.w3.org/2000/svg" p-id="2497" xmlns:xlink="http://www.w3.org/1999/xlink" width="200" height="200"><path d="M725.2 716.9h-32v-36c0-13.7-11.2-24.9-24.9-24.9s-24.9 11.2-24.9 24.9v60.9c0 13.7 11.2 24.9 24.9 24.9h56.9c13.7 0 24.9-11.2 24.9-24.9s-11.2-24.9-24.9-24.9z" fill="#FF4E7D" p-id="2498"></path><path d="M613.6 766.7h32v36c0 13.7 11.2 24.9 24.9 24.9s24.9-11.2 24.9-24.9v-60.9c0-13.7-11.2-24.9-24.9-24.9h-56.9c-13.7 0-24.9 11.2-24.9 24.9s11.2 24.9 24.9 24.9z" fill="#FF4E7D" p-id="2499"></path><path d="M669.5 566.8c-94.3 0-170.9 76.7-170.9 170.9 0 94.3 76.7 171 170.9 171s170.9-76.7 170.9-171c0-94.2-76.7-170.9-170.9-170.9z m123 170.9c0 67.9-55.2 123.1-123 123.1-67.9 0-123.1-55.2-123.1-123.1 0-67.8 55.2-123 123.1-123 67.8 0 123 55.2 123 123z" fill="#FF4E7D" p-id="2500"></path><path d="M869 377.9c-82-77.1-272-251.5-273.9-253.2-5.2-4.9-11.5-5.9-15.7-6.3-0.5 0 18.9-0.1-368.4-0.4-29.6 0-53.6 24-53.6 53.6v649.2c0 29.6 24 53.6 53.6 53.6h242.6c13.7 0 24.9-11.2 24.9-24.9s-11.2-24.9-24.9-24.9H211c-2.1 0-3.9-1.7-3.9-3.9V171.6c0-2.1 1.7-3.9 3.9-3.9h342.3v199.6c0 29.6 24 53.6 53.6 53.6h220.3v150.4l0.1 2.9c0.5 13.4 11.4 23.9 24.8 23.9s24.2-10.5 24.7-23.7l0.1-2.3V399.4c0.8-8.3-2-15.9-7.9-21.5z m-262.2-6.7c-2.1 0-3.9-1.7-3.9-3.9V200l185.8 171.2H606.8z" fill="#4E30DC" p-id="2501"></path></svg>