<?xml version="1.0" standalone="no"?><!DOCTYPE svg PUBLIC "-//W3C//DTD SVG 1.1//EN" "http://www.w3.org/Graphics/SVG/1.1/DTD/svg11.dtd"><svg t="1699185792285" class="icon" viewBox="0 0 1024 1024" version="1.1" xmlns="http://www.w3.org/2000/svg" p-id="4022" xmlns:xlink="http://www.w3.org/1999/xlink" width="200" height="200"><path d="M232.9 928.7c-34.8 0-69.6-13.2-96-39.7-53-53-53-139.1 0-192.1L463.8 370c10.3-10.3 27.1-10.3 37.5 0 10.3 10.3 10.3 27.1 0 37.5l-327 326.9c-32.3 32.3-32.3 84.9 0 117.2s84.9 32.3 117.2 0L850 293.1c32.3-32.3 32.3-84.9 0-117.2s-84.9-32.3-117.2 0L648.6 260c-10.3 10.3-27.1 10.3-37.5 0-10.3-10.3-10.3-27.1 0-37.5l84.1-84.1c53-53 139.1-53 192.1 0s53 139.1 0 192.1L328.9 889c-26.5 26.5-61.3 39.7-96 39.7z m0 0" fill="#2197EF" p-id="4023"></path><path d="M868.7 870.3c-42.7 42.7-112 42.7-154.7 0L155.6 311.8c-42.7-42.7-42.7-111.9 0-154.6 42.7-42.7 111.9-42.7 154.6 0l558.5 558.5c42.7 42.7 42.7 111.9 0 154.6z m0 0" fill="#CEE8FA" p-id="4024"></path><path d="M791.3 928.8c-36.3 0-70.4-14.1-96-39.8L136.8 330.5c-53-53-53-139.1 0-192.1 25.7-25.7 59.8-39.8 96-39.8 36.3 0 70.4 14.1 96 39.8l558.5 558.5c25.7 25.7 39.8 59.8 39.8 96 0 36.3-14.1 70.4-39.8 96-25.6 25.8-59.7 39.9-96 39.9zM232.9 151.6c-22.1 0-42.9 8.6-58.6 24.3-32.3 32.3-32.3 84.9 0 117.2l558.5 558.5c15.6 15.7 36.5 24.3 58.6 24.3s42.9-8.6 58.6-24.3c15.6-15.6 24.3-36.5 24.3-58.6s-8.6-42.9-24.3-58.6L291.5 175.9c-15.7-15.6-36.5-24.3-58.6-24.3z m0 0" fill="#2197EF" p-id="4025"></path></svg>