<?xml version="1.0" standalone="no"?><!DOCTYPE svg PUBLIC "-//W3C//DTD SVG 1.1//EN" "http://www.w3.org/Graphics/SVG/1.1/DTD/svg11.dtd"><svg t="1699186552020" class="icon" viewBox="0 0 1097 1024" version="1.1" xmlns="http://www.w3.org/2000/svg" p-id="1491" xmlns:xlink="http://www.w3.org/1999/xlink" width="214.2578125" height="200"><path d="M997.612635 627.338321l-48.518703-48.518703c-0.851205-0.851205-1.702411-1.702411-3.404821-2.553616 62.989194-74.906068 57.881962-185.56276-11.06567-254.510391L782.257689 169.389859c-59.584372-58.733167-150.663342-72.352452-223.866999-31.494597-77.459684-50.221114-178.753117-40.00665-244.295927 24.684954L182.157938 293.665835c-75.757273 75.757273-75.757273 199.182045 0 274.939319L447.733998 834.181214c26.387365 26.387365 86.822943 93.632585 102.995844 108.954281l48.518703 48.518703c19.577722 19.577722 51.072319 19.577722 70.650042 0 19.577722-19.577722 19.577722-51.072319 0-70.650042l-13.619285-13.619285c-9.363259-9.363259-8.512053-23.833749 0-33.197007 11.065669-9.363259 25.53616-4.256027 36.601829 6.809642l25.536159 25.53616c19.577722 19.577722 51.072319 19.577722 70.650042 0s19.577722-51.072319 0-70.650042l-28.940981-28.940981c-10.214464-9.363259-11.065669-25.53616-1.702411-36.601828 6.809643-10.214464 24.684954-11.065669 39.155445 2.553616l26.387365 26.387365c19.577722 19.577722 51.072319 19.577722 70.650041 0s19.577722-51.072319 0-70.650042c-10.214464-9.363259-20.428928-18.726517-29.792186-28.940981-7.660848-10.214464-14.47049-17.875312-5.958437-29.792186 4.256027-5.958437 22.982544-15.321696 33.197007-5.958437 8.512053 7.660848 33.197007 33.197007 33.197008 33.197007 19.577722 19.577722 51.072319 19.577722 70.650041 0s21.280133-50.221114 1.702411-69.798836z" fill="#FFD7C4" p-id="1492"></path><path d="M634.147963 1023.148795c-17.024106 0-34.048213-6.809643-47.667497-19.577723l-48.518704-48.518703c-6.809643-6.809643-21.280133-22.131338-37.453034-40.00665-22.131338-23.833749-49.369909-53.625935-64.691604-68.947631L170.241064 580.522028c-81.715711-82.566916-81.715711-216.206151 0-298.773067l131.936825-131.936825c68.096426-68.096426 175.348296-80.864505 257.064006-32.345802 78.310889-37.453034 173.645885-22.131338 235.783874 39.155445l152.365752 153.216957c71.501247 72.352452 80.0133 183.860349 21.280133 264.724855l11.065669 11.065669 28.940981 28.940981c26.387365 26.387365 26.387365 68.947631 0 94.483791-26.387365 26.387365-68.947631 26.387365-94.48379 0l-32.345802-32.345803c-0.851205 0-6.809643 1.702411-8.512054 3.404822v0.851205c0.851205 1.702411 3.404821 5.107232 5.107232 7.660848 8.512053 9.363259 17.875312 18.726517 27.238571 26.387365l0.851205 0.851205c26.387365 26.387365 26.387365 68.947631 0 94.483791-26.387365 26.387365-68.947631 26.387365-94.483791 0l-26.387365-26.387365c-6.809643-6.809643-12.76808-5.958437-13.619285-5.107232v4.256026c-3.404821 3.404821-3.404821 9.363259 0.851206 12.76808l28.94098 28.940981c26.387365 26.387365 26.387365 68.947631 0 94.483791-12.76808 12.76808-29.792186 19.577722-47.667497 19.577722s-34.899418-6.809643-47.667498-19.577722l-25.53616-25.53616c-5.107232-5.107232-10.214464-7.660848-12.76808-5.958437-0.851205 1.702411-1.702411 3.404821-1.70241 4.256026 0 0.851205 0 2.553616 1.70241 4.256027l13.619285 13.619285c26.387365 26.387365 26.387365 68.947631 0 94.483791-13.619285 12.76808-30.643392 18.726517-47.667498 18.726517zM451.990025 122.573566c-45.965087 0-91.930175 17.875312-125.978387 51.923525L194.926018 305.58271c-68.947631 68.947631-68.947631 181.306733 0 251.105569l265.57606 265.57606c16.172901 16.172901 42.560266 44.262677 65.54281 69.798836 16.172901 17.875312 30.643392 33.197007 36.601829 39.155445l48.518703 48.518703c12.76808 12.76808 34.048213 12.76808 46.816292 0 5.958437-5.958437 9.363259-14.47049 9.363259-22.982543s-3.404821-17.024106-9.363259-22.982544l-13.619285-13.619285c-7.660848-7.660848-11.916874-17.875312-11.916874-28.940981 0-11.065669 4.256027-21.280133 11.916874-28.089775l0.851206-0.851206c16.172901-14.47049 40.857855-11.065669 59.584372 7.660848l25.53616 25.53616c12.76808 12.76808 34.048213 12.76808 46.816292 0s12.76808-34.048213 0-46.816293l-28.940981-28.940981c-16.172901-15.321696-17.875312-41.709061-2.553616-58.733167 5.958437-7.660848 15.321696-12.76808 26.387365-13.619285 13.619285-0.851205 27.23857 4.256027 38.30424 15.321696l26.387365 26.387365c12.76808 12.76808 34.048213 12.76808 46.816292 0s12.76808-33.197007 0-45.965088c-11.065669-9.363259-21.280133-19.577722-30.643391-29.792186l-0.851206-0.851205c-8.512053-10.214464-22.131338-28.089776-5.958437-50.221114 5.958437-8.512053 19.577722-15.321696 31.494597-17.024106 10.214464-0.851205 20.428928 1.702411 27.23857 8.512053l34.048213 34.048213c12.76808 12.76808 34.048213 12.76808 46.816293 0 5.958437-5.958437 9.363259-14.47049 9.363258-22.982544 0-7.660848-2.553616-15.321696-7.660848-20.428928l-50.221114-50.221114c-0.851205 0-1.702411-0.851205-1.70241-1.70241l-12.76808-11.065669 11.065669-12.76808c57.881962-68.947631 53.625935-168.538653-10.214464-231.527847l-153.216957-155.770574c-53.625935-53.625935-137.895262-65.54281-204.289277-28.940981l-9.363259 5.107232-8.512053-5.958437c-28.940981-19.577722-62.989194-28.940981-96.186201-28.940981z m421.346633 560.093101z" fill="" p-id="1493"></path><path d="M22.982544 321.755611L321.755611 22.982544c7.660848-7.660848 19.577722-7.660848 27.23857 0l42.560266 42.560266c7.660848 7.660848 7.660848 19.577722 0 27.23857L92.78138 391.554447c-7.660848 7.660848-19.577722 7.660848-27.23857 0l-42.560266-42.560266c-7.660848-7.660848-7.660848-19.577722 0-27.23857z" fill="#FFFFFF" p-id="1494"></path><path d="M78.310889 414.536991c-9.363259 0-18.726517-3.404821-25.536159-11.065669l-42.560266-42.560266c-14.47049-14.47049-14.47049-37.453034 0-51.923525l299.624272-297.921862c14.47049-14.47049 37.453034-14.47049 51.923525 0l42.560266 42.560266c14.47049 14.47049 14.47049 37.453034 0 51.923525l-299.624273 297.921862c-7.660848 6.809643-17.024106 11.065669-26.387365 11.065669z m-43.411471-80.864506c-0.851205 0.851205-0.851205 2.553616 0 3.404822l42.560266 42.560266c0.851205 0.851205 2.553616 0.851205 3.404821 0L379.637573 80.0133c0.851205-0.851205 0.851205-2.553616 0-3.404821l-42.560266-42.560266c-0.851205-0.851205-2.553616-0.851205-3.404822 0L34.899418 333.672485z" fill="" p-id="1495"></path><path d="M775.448047 22.982544l298.773067 298.773067c7.660848 7.660848 7.660848 19.577722 0 27.23857l-42.560266 42.560266c-7.660848 7.660848-19.577722 7.660848-27.23857 0L705.64921 92.78138c-7.660848-7.660848-7.660848-20.428928 0-28.089776l42.560266-42.560266c7.660848-6.809643 19.577722-6.809643 27.238571 0.851206z" fill="#FFFFFF" p-id="1496"></path><path d="M1018.892768 414.536991c-9.363259 0-18.726517-3.404821-25.53616-11.065669L693.732336 104.698254c-14.47049-14.47049-14.47049-37.453034 0-51.923524l42.560266-42.560266c14.47049-14.47049 37.453034-14.47049 51.923524 0l298.773068 298.773067c14.47049 14.47049 14.47049 37.453034 0 51.923525l-42.560266 42.560266c-6.809643 6.809643-16.172901 11.065669-25.53616 11.065669zM761.828761 34.048213c-0.851205 0-0.851205 0-1.70241 0.851205l-42.560266 42.560266c-0.851205 0.851205-0.851205 2.553616 0 3.404821l298.773067 298.773068c0.851205 0.851205 2.553616 0.851205 3.404821 0l42.560266-42.560266c0.851205-0.851205 0.851205-2.553616 0-3.404822L763.531172 34.899418c-0.851205-0.851205-0.851205-0.851205-1.702411-0.851205zM705.64921 732.036575c-4.256027 0-8.512053-1.702411-11.916874-5.107232L638.40399 671.600998c-6.809643-6.809643-6.809643-17.024106 0-23.833749s17.024106-6.809643 23.833749 0l55.328346 55.328345c6.809643 6.809643 6.809643 17.024106 0 23.833749-3.404821 3.404821-7.660848 5.107232-11.916875 5.107232zM807.793849 629.891937c-4.256027 0-8.512053-1.702411-11.916875-5.107232L740.548628 569.456359c-6.809643-6.809643-6.809643-17.024106 0-23.833749s17.024106-6.809643 23.833749 0l55.328346 55.328346c6.809643 6.809643 6.809643 17.024106 0 23.833749-3.404821 3.404821-7.660848 5.107232-11.916874 5.107232zM599.248545 838.43724c-4.256027 0-8.512053-1.702411-11.916874-5.107232l-55.328346-55.328345c-6.809643-6.809643-6.809643-17.024106 0-23.833749 6.809643-6.809643 17.024106-6.809643 23.833749 0l55.328346 55.328345c6.809643 6.809643 6.809643 17.024106 0 23.833749-3.404821 3.404821-7.660848 5.107232-11.916875 5.107232z" fill="" p-id="1497"></path><path d="M280.04655 579.670823c19.577722 19.577722 19.577722 51.072319 0 70.650042L231.527847 697.988362c-19.577722 19.577722-51.072319 19.577722-70.650042 0-19.577722-19.577722-19.577722-51.072319 0-70.650041l48.518704-48.518703c19.577722-18.726517 51.072319-18.726517 70.650041 0.851205z" fill="#FFE2D1" p-id="1498"></path><path d="M196.628429 729.482959c-17.024106 0-34.048213-6.809643-47.667498-19.577722-12.76808-12.76808-19.577722-29.792186-19.577722-47.667498s6.809643-34.899418 19.577722-47.667498l48.518703-48.518703c26.387365-26.387365 68.947631-26.387365 94.483791 0 12.76808 12.76808 19.577722 29.792186 19.577722 47.667498s-6.809643 34.899418-19.577722 47.667498l-48.518703 48.518703c-12.76808 13.619285-29.792186 19.577722-46.816293 19.577722z m48.518703-148.109725c-8.512053 0-17.024106 3.404821-22.982543 9.363258l-48.518704 48.518703c-5.958437 5.958437-9.363259 14.47049-9.363258 22.982544 0 8.512053 3.404821 17.024106 9.363258 22.982544 12.76808 12.76808 34.048213 12.76808 46.816293 0l48.518703-48.518704c5.958437-5.958437 9.363259-14.47049 9.363259-22.982543 0-8.512053-3.404821-17.024106-9.363259-22.982544L280.897756 578.819618l-11.916875 11.916874c-7.660848-5.958437-16.172901-9.363259-23.833749-9.363258z" fill="" p-id="1499"></path><path d="M382.191189 681.815461c19.577722 19.577722 19.577722 51.072319 0 70.650042L333.672485 800.133001c-19.577722 19.577722-51.072319 19.577722-70.650041 0-19.577722-19.577722-19.577722-51.072319 0-70.650042l48.518703-48.518703c19.577722-18.726517 51.072319-18.726517 70.650042 0.851205z" fill="#FFE2D1" p-id="1500"></path><path d="M298.773067 831.627598c-17.875312 0-34.899418-6.809643-47.667498-19.577723l-0.851205-0.851205c-12.76808-12.76808-19.577722-28.940981-19.577722-46.816293s6.809643-34.899418 19.577722-47.667498l48.518703-48.518703c12.76808-12.76808 29.792186-19.577722 47.667498-19.577722s34.899418 6.809643 47.667498 19.577722c12.76808 12.76808 19.577722 29.792186 19.577723 47.667498s-6.809643 34.899418-19.577723 47.667498l-48.518703 48.518703c-11.916874 12.76808-28.940981 19.577722-46.816293 19.577723z m-22.982543-42.560266c12.76808 11.916874 34.048213 11.916874 45.965087 0l48.518703-48.518704c5.958437-5.958437 9.363259-14.47049 9.363259-22.982543 0-8.512053-3.404821-17.024106-9.363259-22.982544-12.76808-12.76808-34.048213-12.76808-46.816292 0l-48.518704 48.518703c-5.958437 5.958437-9.363259 14.47049-9.363258 22.982544s3.404821 16.172901 10.214464 22.982544z" fill="" p-id="1501"></path><path d="M483.484622 783.108894c19.577722 19.577722 19.577722 51.072319 0 70.650042l-58.733167 58.733167c-19.577722 19.577722-51.072319 19.577722-70.650042 0-19.577722-19.577722-19.577722-51.072319 0-70.650041l58.733167-58.733168c19.577722-19.577722 51.072319-19.577722 70.650042 0z" fill="#FFE2D1" p-id="1502"></path><path d="M389.852037 943.9867c-17.875312 0-34.899418-6.809643-47.667498-19.577722-12.76808-12.76808-19.577722-29.792186-19.577723-47.667498s6.809643-34.899418 19.577723-47.667498l58.733167-58.733167c12.76808-12.76808 29.792186-19.577722 47.667498-19.577723 17.875312 0 34.899418 6.809643 47.667498 19.577723 12.76808 12.76808 19.577722 29.792186 19.577722 47.667498 0 17.875312-6.809643 34.899418-19.577722 47.667497l-58.733168 58.733168c-13.619285 12.76808-29.792186 19.577722-47.667497 19.577722z m58.733167-158.32419c-8.512053 0-17.024106 3.404821-22.982544 9.363259l-58.733167 58.733167c-5.958437 5.958437-9.363259 14.47049-9.363259 22.982544s3.404821 17.024106 9.363259 22.982543c12.76808 12.76808 34.048213 12.76808 46.816293 0l58.733167-58.733167c5.958437-5.958437 9.363259-14.47049 9.363258-22.982543s-3.404821-17.024106-9.363258-22.982544c-6.809643-5.958437-15.321696-9.363259-23.833749-9.363259z" fill="" p-id="1503"></path><path d="M601.802161 869.080632c19.577722 19.577722 19.577722 51.072319 0 70.650041l-51.923524 51.923525c-19.577722 19.577722-51.072319 19.577722-70.650042 0-19.577722-19.577722-19.577722-51.072319 0-70.650042l51.923525-51.923524c19.577722-18.726517 51.072319-18.726517 70.650041 0z" fill="#FFE2D1" p-id="1504"></path><path d="M514.128013 1024c-17.875312 0-34.899418-6.809643-47.667498-19.577722-12.76808-12.76808-19.577722-29.792186-19.577722-47.667498s6.809643-34.899418 19.577722-47.667498l51.923525-51.923525c12.76808-12.76808 29.792186-19.577722 47.667498-19.577722 17.875312 0 34.899418 6.809643 47.667498 19.577722 26.387365 26.387365 26.387365 68.947631 0 94.483791L561.795511 1004.422278c-12.76808 11.916874-29.792186 19.577722-47.667498 19.577722z m51.923525-152.365752c-8.512053 0-17.024106 3.404821-22.982544 9.363258l-51.923524 51.923525c-5.958437 5.958437-9.363259 14.47049-9.363259 22.982543 0 8.512053 3.404821 17.024106 9.363259 22.982544 12.76808 12.76808 34.048213 12.76808 46.816292 0l51.923525-51.923524c12.76808-12.76808 12.76808-34.048213 0-46.816293l11.916874-11.916875-11.916874 11.916875c-6.809643-5.107232-14.47049-8.512053-23.833749-8.512053z" fill="" p-id="1505"></path><path d="M949.093932 596.694929c-4.256027 0-8.512053-1.702411-11.916875-5.107232L599.248545 263.873649 427.305071 435.817124c-26.387365 26.387365-68.947631 26.387365-94.483791 0-26.387365-26.387365-26.387365-68.947631 0-94.483791l214.503741-214.50374c6.809643-6.809643 17.024106-6.809643 23.833749 0 6.809643 6.809643 6.809643 17.024106 0 23.833749L356.655029 365.167082c-12.76808 12.76808-12.76808 34.048213 0 46.816293s34.048213 12.76808 46.816293 0l195.777223-195.777224 361.762261 351.547797c6.809643 6.809643 6.809643 17.024106 0 23.833749-2.553616 3.404821-7.660848 5.107232-11.916874 5.107232z" fill="" p-id="1506"></path></svg>