<?xml version="1.0" standalone="no"?><!DOCTYPE svg PUBLIC "-//W3C//DTD SVG 1.1//EN" "http://www.w3.org/Graphics/SVG/1.1/DTD/svg11.dtd"><svg t="1700492563772" class="icon" viewBox="0 0 1024 1024" version="1.1" xmlns="http://www.w3.org/2000/svg" p-id="10084" xmlns:xlink="http://www.w3.org/1999/xlink" width="200" height="200"><path d="M618.666667 384a21.333333 21.333333 0 0 0 21.333333-21.333333V138.666667a53.393333 53.393333 0 0 0-53.333333-53.333334H96a53.393333 53.393333 0 0 0-53.333333 53.333334v710.333333a53.333333 53.333333 0 0 0 41.766666 52.06l320 71.113333a53.773333 53.773333 0 0 0 11.66 1.286667 53.333333 53.333333 0 0 0 53.24-53.333333V896h117.333334a53.393333 53.393333 0 0 0 53.333333-53.333333V618.666667a21.333333 21.333333 0 0 0-42.666667 0v224a10.666667 10.666667 0 0 1-10.666666 10.666666H469.333333V217.666667a53.333333 53.333333 0 0 0-41.766666-52.06L258.34 128H586.666667a10.666667 10.666667 0 0 1 10.666666 10.666667v224a21.333333 21.333333 0 0 0 21.333334 21.333333zM426.666667 217.666667v702.44a10.666667 10.666667 0 0 1-12.98 10.413333l-320-71.113333A10.593333 10.593333 0 0 1 85.333333 849V146.56a10.666667 10.666667 0 0 1 10.586667-10.666667 11.006667 11.006667 0 0 1 2.393333 0.266667l320 71.113333A10.593333 10.593333 0 0 1 426.666667 217.666667z m362.666666 465a21.333333 21.333333 0 0 1-15.086666-36.42L908.5 512H576a21.333333 21.333333 0 0 1 0-42.666667h332.5l-134.253333-134.246666a21.333333 21.333333 0 0 1 30.173333-30.173334l170.666667 170.666667a21.333333 21.333333 0 0 1 0 30.173333l-170.666667 170.666667A21.266667 21.266667 0 0 1 789.333333 682.666667z" fill="#5C5C66" p-id="10085"></path></svg>