<?xml version="1.0" standalone="no"?><!DOCTYPE svg PUBLIC "-//W3C//DTD SVG 1.1//EN" "http://www.w3.org/Graphics/SVG/1.1/DTD/svg11.dtd"><svg t="1699282522540" class="icon" viewBox="0 0 1024 1024" version="1.1" xmlns="http://www.w3.org/2000/svg" p-id="13438" xmlns:xlink="http://www.w3.org/1999/xlink" width="200" height="200"><path d="M314.6 191.5h403.5v139.3H314.6z" fill="#29AAE1" p-id="13439"></path><path d="M587.5 795.3H424.9l-215-603.8h162.5z" fill="#29AAE1" p-id="13440"></path><path d="M459.6 795.3h162.6l215-603.8H674.7z" fill="#29AAE1" p-id="13441"></path><path d="M699 725.6c0-102.6-83.2-185.8-185.8-185.8-102.6 0-185.8 83.2-185.8 185.8 0 102.6 83.2 185.8 185.8 185.8 102.6 0 185.8-83.2 185.8-185.8z" fill="#FBBA22" p-id="13442"></path><path d="M856.2 178.1c-4.3-6.2-11.4-9.8-19-9.8H209.9c-7.5 0-14.6 3.7-19 9.8-4.4 6.2-5.4 14.1-2.9 21.2l148.1 415.9c-20.1 32.1-31.9 69.9-31.9 110.4 0 115.2 93.8 209 209 209s209-93.8 209-209c0-31.3-7.1-60.8-19.4-87.5l156.3-438.9c2.5-7.1 1.5-14.9-2.9-21.1z m-343 338.5h-0.3L455 354h137.1l-58.3 163.6c-6.7-0.6-13.6-1-20.6-1z m95.4-209H438.4l-33.1-92.9h236.4l-33.1 92.9z m-252.5-92.9l109.6 307.6c-36.2 8.5-68.8 26.4-95.1 51L242.8 214.7h113.3z m157.1 673.5c-89.6 0-162.6-72.9-162.6-162.6 0-89.6 72.9-162.6 162.6-162.6s162.6 73 162.6 162.6c0 89.7-72.9 162.6-162.6 162.6zM671 589c-24.2-27.9-55.6-49.3-91.4-61.3l111.4-313h113.3L671 589z" fill="#211F1E" p-id="13443"></path><path d="M625.6 743.1c-8.6 0-16.1-6.4-17.2-15.1-11.9-89.2-91.8-90.9-95.2-90.9-9.6-0.1-17.3-7.9-17.3-17.5s7.8-17.3 17.4-17.4h0.1c39.3 0 116.8 25.3 129.6 121.1 1.3 9.5-5.4 18.3-15 19.6-0.8 0.1-1.6 0.2-2.4 0.2z" fill="#FFFFFF" p-id="13444"></path></svg>