<?xml version="1.0" standalone="no"?><!DOCTYPE svg PUBLIC "-//W3C//DTD SVG 1.1//EN" "http://www.w3.org/Graphics/SVG/1.1/DTD/svg11.dtd"><svg t="1699159612449" class="icon" viewBox="0 0 1064 1024" version="1.1" xmlns="http://www.w3.org/2000/svg" p-id="1715" xmlns:xlink="http://www.w3.org/1999/xlink" width="207.8125" height="200"><path d="M1037.309504 1024H16.636881c-9.150284 0-16.636881-7.486596-16.636881-16.636881V473.319253c0-9.150284 7.486596-16.636881 16.636881-16.636881h1020.672623c9.150284 0 16.636881 7.486596 16.636881 16.636881v534.87571c0 8.31844-7.486596 15.805037-16.636881 15.805037zM33.273761 990.726239h987.398863V489.956133H33.273761v500.770106z" fill="#131313" p-id="1716"></path><path d="M927.506093 590.609261H109.803412c-9.150284 0-16.636881-7.486596-16.636881-16.636881s7.486596-16.636881 16.636881-16.63688h817.702681c9.150284 0 16.636881 7.486596 16.63688 16.63688s-7.486596 16.636881-16.63688 16.636881zM584.786353 693.75792H116.458164c-9.150284 0-16.636881-7.486596-16.63688-16.63688s7.486596-16.636881 16.63688-16.636881h468.328189c9.150284 0 16.636881 7.486596 16.63688 16.636881s-7.486596 16.636881-16.63688 16.63688zM927.506093 693.75792H690.430544c-9.150284 0-16.636881-7.486596-16.63688-16.63688s7.486596-16.636881 16.63688-16.636881h237.075549c9.150284 0 16.636881 7.486596 16.63688 16.636881s-7.486596 16.636881-16.63688 16.63688zM289.481722 927.506093H116.458164c-9.150284 0-16.636881-7.486596-16.63688-16.636881s7.486596-16.636881 16.63688-16.636881h173.023558c9.150284 0 16.636881 7.486596 16.636881 16.636881s-7.486596 16.636881-16.636881 16.636881zM725.367994 967.434606c-4.15922 0-8.31844-1.663688-11.645817-4.991064l-110.635256-110.635256c-6.654752-6.654752-6.654752-16.636881 0-23.291633 6.654752-6.654752 16.636881-6.654752 23.291633 0l110.635256 110.635256c6.654752 6.654752 6.654752 16.636881 0 23.291633-2.495532 3.327376-7.486596 4.991064-11.645816 4.991064z" fill="#131313" p-id="1717"></path><path d="M613.06905 969.930138c-4.15922 0-8.31844-1.663688-11.645817-4.991064-6.654752-6.654752-6.654752-16.636881 0-23.291633l115.62632-115.62632c6.654752-6.654752 16.636881-6.654752 23.291633 0 6.654752 6.654752 6.654752 16.636881 0 23.291633L624.714866 964.939074c-3.327376 3.327376-7.486596 4.991064-11.645816 4.991064z" fill="#131313" p-id="1718"></path><path d="M422.576767 580.627132L981.575955 21.627945c9.150284-7.486596 23.291633-6.654752 30.778229 2.495532l27.450853 27.450853c9.150284 7.486596 9.982128 21.627945 2.495532 30.778229L483.301381 641.351747l-85.679935 24.95532 24.955321-85.679935z" fill="#7BAEEF" p-id="1719"></path><path d="M397.621446 682.943948c-4.15922 0-8.31844-1.663688-11.645816-4.991064-4.15922-4.15922-5.822908-10.813972-4.159221-16.636881l24.955321-85.679935c0.831844-2.495532 2.495532-4.991064 4.15922-6.654752l558.999188-558.999188 0.831844-0.831844c15.805037-13.309504 39.928513-11.645816 53.238018 4.15922l26.619009 26.619009c14.973193 13.309504 17.468725 37.432981 4.15922 53.238018 0 0.831844-0.831844 0.831844-0.831844 0.831844L495.779041 652.997563c-1.663688 1.663688-4.15922 3.327376-7.486596 4.15922l-85.679935 24.955321c-1.663688 0.831844-3.327376 0.831844-4.991064 0.831844z m39.928513-93.166531l-15.805036 52.406174 52.406174-14.973193 555.671811-555.671811c1.663688-2.495532 0.831844-4.991064-0.831844-7.486597l-0.831844-0.831844-27.450853-27.450853-0.831844-0.831844c-1.663688-2.495532-4.991064-2.495532-7.486596-0.831844L437.549959 589.777417z" fill="#131313" p-id="1720"></path><path d="M855.135662 382.648253c-4.15922 0-8.31844-1.663688-11.645816-4.991064-6.654752-6.654752-6.654752-16.636881 0-23.291633l149.731925-149.731925L895.896019 108.139724c-6.654752-6.654752-6.654752-16.636881 0-23.291633 6.654752-6.654752 16.636881-6.654752 23.291633 0l108.971568 108.971568c3.327376 3.327376 4.991064 7.486596 4.991064 11.645816 0 4.15922-1.663688 8.31844-4.991064 11.645817l-161.377742 161.377741c-3.327376 2.495532-7.486596 4.15922-11.645816 4.15922z" fill="#131313" p-id="1721"></path></svg>